<svg xmlns="http://www.w3.org/2000/svg" width="410.4" height="178.2">
    <style>
        .st0 {
            fill: #333
        }
    </style>
    <circle class="st0" cx="402.2" cy="92.3" r="8.3" />
    <circle class="st0" cx="370.5" cy="92.3" r="13.9" />
    <circle class="st0" cx="322.2" cy="92.3" r="19.7" />
    <path class="st0"
        d="M265.8 42.6c-19.2-14.4-41.5-20.8-63.6-18C193.8 15.1 184.4 8 174 3.4L166.4 0 162 7c-18 28.5-25.2 67.8-19.3 105.1l.9 5.8 5.6 1.8c7.4 2.4 14.9 3.4 22.4 3.1 8.7 19.9 20.6 36.9 34.6 49.6l6.4 5.8 6.4-5.8c29.8-26.9 48.6-72.4 50.5-121.8l.2-5-3.9-3zm-81.9 59.3l-7.6 1.2c-5.2.8-10.4.7-15.5-.2-3.1-27.5 1.6-55.7 13-77.9 6.1 4 11.8 9.3 17 15.8l3.6 4.6 5.8-1.1c4-.8 8.2-1.2 12.2-1.2 13.2 0 25.8 4 37.7 11.9-2.5 38.6-16.2 73.8-37.5 96.8-10.6-11.4-19.5-26-25.9-42.7l-2.8-7.2z" />
    <circle class="st0" cx="88.2" cy="92.3" r="19.7" />
    <circle class="st0" cx="40.8" cy="92.3" r="13.9" />
    <circle class="st0" cx="8.3" cy="92.3" r="8.3" />
</svg>