<svg xmlns="http://www.w3.org/2000/svg" width="49.1" height="49.1">
    <style>
        .st0{fill: #333 }.st1{fill: #f2c57c}
    </style>
    <path class="st0"
        d="M49.1 23.5c-.2.1-.4.2-.7.2-1.7.5-3.5.8-5.3.8s-3.6-.3-5.3-.8c-.6-.2-1.3-.4-1.9-.7-.7-.3-1.4-.7-2.1-1.1-2.8-1.6-5.1-3.9-6.7-6.7-.4-.7-.8-1.4-1.1-2.1-.3-.6-.5-1.3-.7-1.9-.5-1.7-.8-3.5-.8-5.3 0-1.9.3-3.6.8-5.3.1-.2.1-.5.2-.7h-1c-1.9 0-3.7.2-5.4.6C8.2 3.1 0 12.9 0 24.5 0 38 11 49 24.5 49c11.7 0 21.5-8.2 23.9-19.1.4-1.7.6-3.5.6-5.4.1-.3.1-.6.1-1zM37.6 37.6c-.4.4-.9.8-1.3 1.2-1.9 1.6-4.1 2.7-6.5 3.5-1.7.5-3.5.8-5.3.8-1.9 0-3.8-.3-5.5-.8-2.3-.7-4.4-1.9-6.3-3.4-.9-.8-1.8-1.6-2.5-2.5-1.5-1.8-2.7-4-3.4-6.3-.5-1.8-.8-3.6-.8-5.6 0-1.8.3-3.6.8-5.3.7-2.4 1.9-4.6 3.5-6.5.4-.5.8-.9 1.2-1.3 2-2 4.4-3.5 7.1-4.4.5 12.7 10.8 23 23.5 23.5-.9 2.7-2.5 5.1-4.5 7.1z"
        id="g-moon" />
    <path class="st1"
        d="M49.1 23.5c-.2.1-.4.2-.7.2-1.7.5-3.5.8-5.3.8s-3.6-.3-5.3-.8c-.6-.2-1.3-.4-1.9-.7-.7-.3-1.4-.7-2.1-1.1-2.8-1.6-5.1-3.9-6.7-6.7-.4-.7-.8-1.4-1.1-2.1-.3-.6-.5-1.3-.7-1.9-.5-1.7-.8-3.5-.8-5.3 0-1.9.3-3.6.8-5.3.1-.2.1-.5.2-.7h-1c-1.9 0-3.7.2-5.4.6C8.2 3.1 0 12.9 0 24.5 0 38 11 49 24.5 49c11.7 0 21.5-8.2 23.9-19.1.4-1.7.6-3.5.6-5.4.1-.3.1-.6.1-1zM37.6 37.6c-.4.4-.9.8-1.3 1.2-1.9 1.6-4.1 2.7-6.5 3.5-1.7.5-3.5.8-5.3.8-1.9 0-3.8-.3-5.5-.8-2.3-.7-4.4-1.9-6.3-3.4-.9-.8-1.8-1.6-2.5-2.5-1.5-1.8-2.7-4-3.4-6.3-.5-1.8-.8-3.6-.8-5.6 0-1.8.3-3.6.8-5.3.7-2.4 1.9-4.6 3.5-6.5.4-.5.8-.9 1.2-1.3 2-2 4.4-3.5 7.1-4.4.5 12.7 10.8 23 23.5 23.5-.9 2.7-2.5 5.1-4.5 7.1z"
        id="y-moon" />
    <path class="st1"
        d="M24.5 49.1C11 49.1 0 38.1 0 24.5S11 0 24.5 0 49 11 49 24.5 38.1 49.1 24.5 49.1zm0-43.1C14.3 6 6 14.3 6 24.5S14.3 43 24.5 43 43 34.7 43 24.5 34.8 6 24.5 6z"
        id="y-sun" />
    <path class="st0"
        d="M24.5 49.1C11 49.1 0 38.1 0 24.5S11 0 24.5 0 49 11 49 24.5 38.1 49.1 24.5 49.1zm0-43.1C14.3 6 6 14.3 6 24.5S14.3 43 24.5 43 43 34.7 43 24.5 34.8 6 24.5 6z"
        id="g-sun" />
</svg>